<?xml version="1.0" encoding="UTF-8"?>
<svg id="BACKGROUND" xmlns="http://www.w3.org/2000/svg" xmlns:xlink="http://www.w3.org/1999/xlink" viewBox="0 0 937.37 249.86">
  <defs>
    <style>
      .cls-1 {
        fill: #e5907d;
      }

      .cls-1, .cls-2, .cls-3, .cls-4, .cls-5, .cls-6, .cls-7, .cls-8, .cls-9, .cls-10, .cls-11, .cls-12 {
        stroke-width: 0px;
      }

      .cls-2 {
        fill: #4e4265;
      }

      .cls-3 {
        fill: #d16265;
      }

      .cls-4, .cls-13, .cls-14, .cls-15 {
        fill: none;
      }

      .cls-16 {
        clip-path: url(#clippath-1);
      }

      .cls-13 {
        stroke: #4e4265;
      }

      .cls-13, .cls-14, .cls-15 {
        stroke-linejoin: round;
        stroke-width: 1.14px;
      }

      .cls-14 {
        stroke: #1f152e;
      }

      .cls-5 {
        fill: #322744;
      }

      .cls-6 {
        fill: #c2d9fd;
      }

      .cls-7 {
        fill: #122126;
      }

      .cls-17 {
        clip-path: url(#clippath);
      }

      .cls-8 {
        fill: #1f152e;
      }

      .cls-9 {
        fill: #929aa9;
      }

      .cls-10 {
        opacity: .2;
      }

      .cls-10, .cls-11, .cls-12 {
        fill: #fff;
      }

      .cls-15 {
        stroke: #d16265;
        stroke-linecap: round;
      }

      .cls-12 {
        opacity: .1;
      }
    </style>
    <clipPath id="clippath">
      <rect class="cls-4" y=".96" width="936.99" height="248.89"/>
    </clipPath>
    <clipPath id="clippath-1">
      <rect class="cls-4" x="0" y="-53.4" width="937.36" height="356.66"/>
    </clipPath>
  </defs>
  <rect class="cls-7" x="0" y=".96" width="937.36" height="249.86"/>
  <g class="cls-17">
    <g>
      <g class="cls-16">
        <g>
          <path class="cls-11" d="M353.12-10.3s8.37,9.27,2.49,16.28c-5.88,7.01-16.96,6.56-16.96,6.56,0,0,8.14,43.64,6.11,48.39-2.03,4.75-9.04,3.84-9.04,3.84l1.58,5.43s25.55.9,33.24,8.14c0,0,51.86-1.52,60.9,8.88,9.04,10.4,17.78,44.95,12.36,61.07,0,0,19.9,39.19,19.9,55.47,0,10.63-41.49,43.78-75.86,47.4,0,0,9.59,20.16-5.02,34.53,0,0,3.17,11.41,4.3,17.57h-64.52V7.26s27.81,5.73,30.52-17.56Z"/>
          <g>
            <path class="cls-8" d="M215.43,246.84s44.23,73.59,163.33,10.26c0,0-107.68-46.02-163.33-10.26Z"/>
            <g>
              <path class="cls-7" d="M389.13,368.37c-31.47,5.76-106-14.52-106-14.52v-11.28c-27.45-13.3-79.08-14.15-79.08-14.15.96-6.17,2.31-13.07,3.87-20.3,5.68-26.2,14.31-56.43,18.17-69.59,1.24-4.23,1.98-6.7,1.98-6.7l134.81-2.17c16.74,49.88,26.24,138.7,26.24,138.7Z"/>
              <path class="cls-11" d="M229.14,239.52s-10.45,52.03-12.76,60.05c-.55,1.9-5.27,6.73-8.44,8.55,5.68-26.2,14.31-56.43,18.17-69.59l3.03.98Z"/>
            </g>
            <g>
              <path class="cls-9" d="M33.02,76.5c-.72,5.21.8,9.72,3.4,10.08l22.15,3.06c2.61.36,5.3-3.56,6.02-8.77.72-5.2-.81-9.71-3.41-10.07l-22.15-3.06c-2.6-.36-5.29,3.57-6.01,8.77Z"/>
              <g>
                <path class="cls-8" d="M72.23,133.13c-20.23-2.8-33.52-27.56-29.68-55.3,3.84-27.74,23.35-47.96,43.59-45.16l8.86,1.23-13.9,100.46-8.86-1.23Z"/>
                <ellipse class="cls-5" cx="89.91" cy="84.38" rx="50.71" ry="36.98" transform="translate(-6 161.88) rotate(-82.12)"/>
                <ellipse class="cls-8" cx="92.5" cy="84.74" rx="50.71" ry="36.98" transform="translate(-4.12 164.75) rotate(-82.12)"/>
              </g>
              <ellipse class="cls-13" cx="92.5" cy="84.74" rx="42.22" ry="30.8" transform="translate(-4.12 164.75) rotate(-82.12)"/>
              <path class="cls-5" d="M90.02,84.4c-.94,6.8,2.32,12.88,7.28,13.56,4.96.69,9.75-4.27,10.69-11.08.94-6.8-2.32-12.88-7.28-13.56-4.96-.69-9.75,4.27-10.69,11.08Z"/>
              <g>
                <path class="cls-9" d="M94.97,85.08c-.72,5.21.8,9.72,3.4,10.08l22.15,3.06c2.61.36,5.3-3.56,6.02-8.77.72-5.2-.81-9.71-3.41-10.07l-22.15-3.06c-2.6-.36-5.29,3.57-6.01,8.77Z"/>
                <path class="cls-5" d="M117.12,88.14c-.72,5.2.81,9.71,3.41,10.07,2.6.36,5.3-3.56,6.02-8.77.72-5.2-.81-9.71-3.41-10.07s-5.3,3.56-6.02,8.77Z"/>
                <path class="cls-10" d="M100.98,76.31l18.62,2.58c-1.79-.25-3.62,1.53-4.83,4.34-.01.03-.03.07-.04.1-.18.43-.35.89-.5,1.37-.02.08-.05.15-.07.23-.07.23-.13.46-.19.69-.03.1-.05.21-.08.32-.06.24-.11.48-.16.72-.01.07-.03.15-.04.22-.05.25-.09.51-.13.77h0c-.48,3.49.04,6.66,1.22,8.48l-1.17-.16c-1.18-1.83-1.7-5-1.22-8.48l-3.99-.55c-.48,3.49.04,6.66,1.22,8.48l-1.17-.16c-1.18-1.83-1.7-5-1.22-8.48l-3.99-.55c-.48,3.49.04,6.66,1.22,8.48l-1.17-.16c-1.18-1.83-1.7-5-1.22-8.48l-3.99-.55c-.48,3.49.04,6.66,1.22,8.48l-1.17-.16c-1.18-1.83-1.7-5-1.22-8.48l-1.93-.27c.72-5.2,3.41-9.13,6.01-8.77Z"/>
              </g>
              <path class="cls-11" d="M72.79,37.65c-4.07-1.57-11.48,3.91-11.45,7.92.03,4.01,15.02-6.54,11.45-7.92Z"/>
            </g>
            <g>
              <path class="cls-1" d="M285.12,126.71c-5.58,22.05-16.45,45.42-30.23,60.64-10.78,11.91-23.88,22.98-36.15,31.7h0c-18.23,12.98-34.6,20.75-38.75,18.4-6.92-3.96-48.59-24.92-60.39-44.39-11.8-19.47-18.19-86.86-18.19-86.86l20.42-3.67s3.16,13.33,9.82,25.67c4.3,8,10.08,15.58,17.4,18.82,26.98,11.93,33.63,23.62,34.35,25.01.03.07.05.1.05.1l.02.04-.04-.2c-.04-.19-.1-.52-.18-.97l-.08-.5c-.67-4.4-1.92-16.73,3.27-27.33,5.37-10.99,26.79-22.99,27.45-23.36h.02c-2.3-7.96,6.96-29.32,14.43-33.45,26.56-14.7,56.44-10.64,56.44-10.64,6.18,10.5,5.62,30.16.35,51Z"/>
              <path class="cls-3" d="M285.12,126.71c-5.58,22.05-16.45,45.42-30.23,60.64-10.78,11.91-23.88,22.98-36.15,31.7-.17-1.08-9.79-64.99,26.42-84.54,13.94-7.52,27.96-8.94,39.95-7.8Z"/>
              <path class="cls-3" d="M183.45,172.13c-22.99-4.96-37.98-21.3-42.42-21.99-16.05-2.51-25.05-15.79-25.05-15.79,0,0,7.16-2.81,15.67-6.16,4.3,8,10.08,15.58,17.4,18.82,26.98,11.93,33.63,23.62,34.35,25.01.03.07.05.1.05.1Z"/>
              <path class="cls-10" d="M214.84,121.8s3.17,6.65,32.23-14.52c29.06-21.17,27.02-29.31,19.8-30.79-7.22-1.48-36.46,7.22-41.27,13.8-5.59,7.63-12.64,23.59-10.76,31.52Z"/>
              <path class="cls-10" d="M217.03,156.53c-2.1,10.18-17.1,15.93-25.58,17.7,0,0-6.13-1.45-7.98-2.07l-.04-.2-.18-.97-.08-.5c-.67-4.4-1.92-16.73,3.27-27.33,5.37-10.99,26.79-22.99,27.45-23.36h.02c3.5,3.88,4.83,28.44,3.13,36.73Z"/>
              <path class="cls-15" d="M183.47,172.16s8.82,1.99,11.07,4.89c2.26,2.9,4.89,16.01,4.89,16.01"/>
              <path class="cls-10" d="M110.76,142.47c4.06,2.95,22.35,33.67,20.52,47.85,0,0,32.63,19.5,40.43,24.31,7.81,4.81,10.77,14.08,10.82,18.65.05,4.57-50.97-27.95-58.29-36.79-7.32-8.84-17.78-57.14-13.49-54.01Z"/>
              <path class="cls-11" d="M284.77,75.71s-47.44,3.44-56.44,14.15c-9.04,10.75-13.37,22.86-13.49,31.94,0,0-36.19,21.1-31.38,50.36l-.04-.2c-.04-.19-.1-.52-.18-.97l-.08-.5c-.67-4.4-1.92-16.73,3.27-27.33,5.37-10.99,26.79-22.99,27.45-23.36h.02c-2.3-7.96,6.96-29.32,14.43-33.45,26.56-14.7,56.44-10.64,56.44-10.64Z"/>
              <path class="cls-15" d="M213.9,119.79s1.71,4.7,4.44,5.56c1.7.54,5.22-2.78,5.22-2.78"/>
              <path class="cls-15" d="M143.28,188.02s20.55,15.13,39.25,18.59"/>
              <path class="cls-1" d="M101.41,106.2s-5.98-2.5-8.91-5.83c-2.93-3.33-1.86-20.27,2.23-25.13,4.09-4.86,11.86,2.18,11.86,2.18,0,0,3.16-3.95,5.92-3.85,2.77.1,14.2,5.13,14.2,5.13,0,0,1.08,18.6-4.89,23.84l-20.42,3.67Z"/>
            </g>
            <g>
              <g>
                <path class="cls-8" d="M130.87,141.24c-20.23-2.8-33.52-27.56-29.68-55.3,3.84-27.74,23.35-47.96,43.59-45.16l8.86,1.23-13.9,100.46-8.86-1.23Z"/>
                <ellipse class="cls-5" cx="148.55" cy="92.5" rx="50.71" ry="36.98" transform="translate(36.56 226.96) rotate(-82.12)"/>
                <ellipse class="cls-8" cx="151.14" cy="92.85" rx="50.71" ry="36.98" transform="translate(38.45 229.84) rotate(-82.12)"/>
                <ellipse class="cls-5" cx="159.56" cy="94.02" rx="44.05" ry="32.12" transform="translate(44.56 239.19) rotate(-82.12)"/>
              </g>
              <ellipse class="cls-8" cx="165.12" cy="94.79" rx="39.73" ry="28.97" transform="translate(48.59 245.35) rotate(-82.12)"/>
              <ellipse class="cls-2" cx="171.72" cy="95.7" rx="34.51" ry="25.17" transform="translate(53.38 252.68) rotate(-82.12)"/>
              <ellipse class="cls-14" cx="171.72" cy="95.7" rx="26.03" ry="18.98" transform="translate(53.38 252.68) rotate(-82.12)"/>
              <path class="cls-8" d="M162.73,94.46c-.94,6.8,2.32,12.88,7.28,13.56,4.96.69,9.75-4.27,10.69-11.08.94-6.8-2.32-12.88-7.28-13.56-4.96-.69-9.75,4.27-10.69,11.08Z"/>
              <g>
                <path class="cls-9" d="M167.68,95.14c-.72,5.21.8,9.72,3.4,10.08l22.15,3.06c2.61.36,5.3-3.56,6.02-8.77.72-5.2-.81-9.71-3.41-10.07l-22.15-3.06c-2.6-.36-5.29,3.57-6.01,8.77Z"/>
                <path class="cls-5" d="M189.83,98.21c-.72,5.2.81,9.71,3.41,10.07s5.3-3.56,6.02-8.77c.72-5.2-.81-9.71-3.41-10.07-2.6-.36-5.3,3.56-6.02,8.77Z"/>
                <path class="cls-10" d="M173.69,86.37l18.62,2.58c-1.79-.25-3.62,1.53-4.83,4.34-.01.03-.03.07-.04.1-.18.43-.35.89-.5,1.37-.02.08-.05.15-.07.23-.07.23-.13.46-.19.69-.03.1-.05.21-.08.32-.06.24-.11.48-.16.72-.01.07-.03.15-.04.22-.05.25-.09.51-.13.77h0c-.48,3.49.04,6.66,1.22,8.48l-1.17-.16c-1.18-1.83-1.7-5-1.22-8.48l-3.99-.55c-.48,3.49.04,6.66,1.22,8.48l-1.17-.16c-1.18-1.83-1.7-5-1.22-8.48l-3.99-.55c-.48,3.49.04,6.66,1.22,8.48l-1.17-.16c-1.18-1.83-1.7-5-1.22-8.48l-3.99-.55c-.48,3.49.04,6.66,1.22,8.48l-1.17-.16c-1.18-1.83-1.7-5-1.22-8.48l-1.93-.27c.72-5.2,3.41-9.13,6.01-8.77Z"/>
              </g>
              <path class="cls-11" d="M157.21,61.07c-3.25-.99-9.83,4.19-10.12,7.54s12.97-6.67,10.12-7.54Z"/>
              <path class="cls-11" d="M142.73,49.07c-4.07-1.57-11.48,3.91-11.45,7.92s15.02-6.54,11.45-7.92Z"/>
            </g>
            <path class="cls-8" d="M369.81,81.36c14.24-.89,33.95,44.62,33.12,61.38-.83,16.76-17.62,55.5-33.12,61.96-15.5,6.46-49.17-29.02-48.48-55.51.69-26.49,27.81-66.53,48.48-67.82Z"/>
            <g>
              <path class="cls-7" d="M379.5,255.38s-36.61,12.14-72.3,0c-46.51-15.82-91.77-8.53-91.77-8.53,0,0,14.42-52.25,14.06-68.69,0,0,0-.02,0-.02-.04-1.73-.2-3.07-.51-3.9-3.23-8.68-7.58-40.9-.45-57.97,9.69-23.18,56.24-40.55,56.24-40.55l50-1.94s18.4-2.17,35.03,7.59c0,0-37.31,23.93-39.03,71.03-.38,10.36,2.66,19.07,7.19,26.24,11.29,17.85,31.83,26.07,31.83,26.07,0,0-1.94,40.03,9.69,50.69Z"/>
              <path class="cls-6" d="M281.43,91.25s-1.64,17.83,35.21-.97c0,0-19.1,21.37-33.09,16.19-9.77-3.62-2.12-15.22-2.12-15.22Z"/>
              <path class="cls-7" d="M379.5,255.38s-36.61,12.14-72.3,0c-29.03-17.76-78.22-16.28-78.22-16.28,3.53-28.23,1.55-51.91.51-60.94,0,0,0-.02,0-.02-.29-2.52-.51-3.9-.51-3.9,0,0,38.89,15.81,108.32,4.36,0,0,.23.01.68.04,11.29,17.85,31.83,26.07,31.83,26.07,0,0-1.94,40.03,9.69,50.69Z"/>
            </g>
            <path class="cls-1" d="M456.04,205.46c-5.79,11.1-36.14,30.4-53.09,34.9-16.95,4.51-68.17,12.11-68.17,12.11l-.75-2.02-5.87-15.82c18.09-7.2,34.22-28.64,45.58-32.23,11.36-3.58,27.94-1.35,27.94-1.35,0,0,0,0-.02,0-.6-.31-16.03-8.44-16.03-23.64,0-7.12,4-24.37,4-24.37-4.22-.88-6.47-5.59-6.85-6.46-.02-.05-.04-.09-.06-.14-4.84,32.48-27.64,50.03-27.64,50.03,0,0-5.44-2.63-11.19-8.77-1.72-1.83-3.47-3.98-5.13-6.47-1.24-1.89-2.43-3.97-3.49-6.26-.43-.91-.83-1.85-1.21-2.83-1.63-4.16-2.84-8.92-3.31-14.34-.25-2.68-.32-5.5-.17-8.49.05-.95.11-1.91.2-2.89,1.73-19.26,8.56-33.65,16.04-43.92.32-.45.65-.89.97-1.32,4.38-5.77,8.9-10.17,12.7-13.33,5.39-4.49,9.32-6.52,9.32-6.52,22.55-.02,51.95,5.11,57.63,9.89h0c6.14,5.19,11.77,33.39,10.38,48.99-.22,2.42-.6,4.54-1.18,6.21-.02.07-.03.15-.05.22-.6,5.28,23.83,50.39,19.44,58.8Z"/>
            <path class="cls-15" d="M366.45,239.61s33.2-.73,39.12-13.41"/>
            <path class="cls-10" d="M346.01,229.1s16.78-18.87,26.74-23.64c9.96-4.76,29.92-3.73,35.32,0,5.4,3.73-65.1,31.33-62.06,23.64Z"/>
            <path class="cls-10" d="M401.68,201.06s0,0-.02,0c-.6-.31-16.03-8.44-16.03-23.64,0-7.12,4-24.37,4-24.37,8.67-.12,20.63,10.86,24.82,25.92,4.2,15.06-12.77,22.09-12.77,22.09Z"/>
            <path class="cls-10" d="M437.83,140.24c-.48,2.81-.94,4.99-1.18,6.21-.02.07-.03.15-.05.22-1.53,7.1-6.48,9.67-6.48,9.67-16.9-5.36-31.52-39.7-28.45-52.82,4.24-18.05,25.1-12.44,25.76-12.27h0c6.14,5.19,11.77,33.39,10.38,48.99Z"/>
            <path class="cls-15" d="M416.78,153.68s8.45,4.33,13.35,2.65,7.63-9.84,7.99-17.14"/>
            <g>
              <path class="cls-9" d="M219.47,244.66c-.72,5.21.8,9.72,3.4,10.08l22.15,3.06c2.61.36,5.3-3.56,6.02-8.77.72-5.2-.81-9.71-3.41-10.07l-22.15-3.06c-2.6-.36-5.29,3.57-6.01,8.77Z"/>
              <g>
                <path class="cls-8" d="M258.68,301.28c-20.23-2.8-33.52-27.56-29.68-55.3,3.84-27.74,23.35-47.96,43.59-45.16l8.86,1.23-13.9,100.46-8.86-1.23Z"/>
                <ellipse class="cls-5" cx="276.36" cy="252.53" rx="50.71" ry="36.98" transform="translate(-11.67 491.67) rotate(-82.12)"/>
                <ellipse class="cls-8" cx="278.95" cy="252.89" rx="50.71" ry="36.98" transform="translate(-9.79 494.54) rotate(-82.12)"/>
              </g>
              <ellipse class="cls-13" cx="278.95" cy="252.89" rx="42.22" ry="30.8" transform="translate(-9.79 494.54) rotate(-82.12)"/>
              <path class="cls-2" d="M276.47,252.55c-.94,6.8,2.32,12.88,7.28,13.56,4.96.69,9.75-4.27,10.69-11.08.94-6.8-2.32-12.88-7.28-13.56-4.96-.69-9.75,4.27-10.69,11.08Z"/>
              <g>
                <path class="cls-9" d="M281.42,253.23c-.72,5.21.8,9.72,3.4,10.08l22.15,3.06c2.61.36,5.3-3.56,6.02-8.77.72-5.2-.81-9.71-3.41-10.07l-22.15-3.06c-2.6-.36-5.29,3.57-6.01,8.77Z"/>
                <path class="cls-5" d="M303.57,256.3c-.72,5.2.81,9.71,3.41,10.07,2.6.36,5.3-3.56,6.02-8.77.72-5.2-.81-9.71-3.41-10.07s-5.3,3.56-6.02,8.77Z"/>
                <path class="cls-10" d="M287.43,244.46l18.62,2.58c-1.79-.25-3.62,1.53-4.83,4.34-.01.03-.03.07-.04.1-.18.43-.35.89-.5,1.37-.02.08-.05.15-.07.23-.07.23-.13.46-.19.69-.03.1-.05.21-.08.32-.06.24-.11.48-.16.72-.01.07-.03.15-.04.22-.05.25-.09.51-.13.77h0c-.48,3.49.04,6.66,1.22,8.48l-1.17-.16c-1.18-1.83-1.7-5-1.22-8.48l-3.99-.55c-.48,3.49.04,6.66,1.22,8.48l-1.17-.16c-1.18-1.83-1.7-5-1.22-8.48l-3.99-.55c-.48,3.49.04,6.66,1.22,8.48l-1.17-.16c-1.18-1.83-1.7-5-1.22-8.48l-3.99-.55c-.48,3.49.04,6.66,1.22,8.48l-1.17-.16c-1.18-1.83-1.7-5-1.22-8.48l-1.93-.27c.72-5.2,3.41-9.13,6.01-8.77Z"/>
              </g>
              <g>
                <path class="cls-8" d="M317.31,309.39c-20.23-2.8-33.52-27.56-29.68-55.3,3.84-27.74,23.35-47.96,43.59-45.16l8.86,1.23-13.9,100.46-8.86-1.23Z"/>
                <ellipse class="cls-5" cx="335" cy="260.65" rx="50.71" ry="36.98" transform="translate(30.89 556.75) rotate(-82.12)"/>
                <ellipse class="cls-8" cx="337.59" cy="261.01" rx="50.71" ry="36.98" transform="translate(32.77 559.63) rotate(-82.12)"/>
                <ellipse class="cls-5" cx="346.01" cy="262.17" rx="44.05" ry="32.12" transform="translate(38.89 568.98) rotate(-82.12)"/>
              </g>
              <ellipse class="cls-8" cx="351.57" cy="262.94" rx="39.73" ry="28.97" transform="translate(42.91 575.14) rotate(-82.12)"/>
              <ellipse class="cls-2" cx="358.16" cy="263.85" rx="34.51" ry="25.17" transform="translate(47.71 582.47) rotate(-82.12)"/>
              <ellipse class="cls-14" cx="358.16" cy="263.85" rx="26.03" ry="18.98" transform="translate(47.7 582.47) rotate(-82.12)"/>
              <path class="cls-11" d="M343.66,229.22c-3.25-.99-9.83,4.19-10.12,7.54-.29,3.35,12.97-6.67,10.12-7.54Z"/>
              <path class="cls-11" d="M329.18,217.22c-4.07-1.57-11.48,3.91-11.45,7.92.03,4.01,15.02-6.54,11.45-7.92Z"/>
              <path class="cls-11" d="M259.24,205.8c-4.07-1.57-11.48,3.91-11.45,7.92.03,4.01,15.02-6.54,11.45-7.92Z"/>
            </g>
            <path class="cls-15" d="M401.68,201.06s8.83.36,10.8,1.6c1.97,1.23,1.97,3.95,1.97,3.95"/>
            <path class="cls-3" d="M382.72,146.45c-4.84,32.48-27.64,50.03-27.64,50.03,0,0-5.44-2.63-11.19-8.77,14.19-10.91,14.27-31.38,14.27-31.38,9.36-.42,24.56-9.88,24.56-9.88Z"/>
            <path class="cls-15" d="M389.19,152.93s-7.65-2.59-11.44-18.42"/>
            <path class="cls-10" d="M433.02,159.07c-3.05-1.65,3.47,26.62,4.58,30.69,1.11,4.07,9.11,13.7,10.96,15,0,0-24.16,16.69-25.17,22.21-.37,2.03,28.13-17.21,29.24-22.21,1.11-5-16.29-43.88-19.62-45.69Z"/>
            <path class="cls-7" d="M332.5,8.72s21.33.65,22.46-9.69c1.61-14.77-13.32-14.77-13.32-14.77,0,0,7.37,7.99,5.73,14.28-1.45,5.57-10.65,7.35-10.65,7.35,0,0,2.26-11.87-1.94-15.28-2.77-2.25-36.27-4.23-55.21,7.48-3.13,1.94,9.18,32.85,9.18,65.36,0,0,37.93-37.37,43.74-54.74Z"/>
            <g>
              <path class="cls-1" d="M334.78,73.77s-23.73,16.47-36.32,17.44c-12.59.97-13.68-15.5-13.68-15.5,3.26-9.69,11.85-37.29,11.85-37.29l11.81,6.52,21.5,11.88c.97,7.75,4.84,16.95,4.84,16.95Z"/>
              <path class="cls-3" d="M334.78,73.77s-23.73,16.47-36.32,17.44c-1.61-7.59-11.62-13.72-11.62-13.72,0,0,3.08-1.95,6.56-.98,3.44.95,13.32,9.41,13.56,9.59-.29-.66-12.33-17.43-12.48-18.94-.38-3.7,2.86-23.29,2.86-23.29,0,0,4.46,0,11.11,1.08l21.5,11.88c.97,7.75,4.84,16.95,4.84,16.95Z"/>
              <path class="cls-1" d="M316.65,81.36s3.87-7.53,7.1-9.04c3.23-1.51,7.96,0,7.96,0,0,0-11.84,6.24-15.07,9.04Z"/>
            </g>
            <path class="cls-1" d="M341.3,59.25c-1.25,1.61-5.37,2.11-10.59,1.87h0c-12.28-.56-30.63-5.18-31.77-8.81-1.62-5.17-3.13-21.48-3.13-21.48l5.88-1.44c-2.26-10.33-2.26-22.63-2.26-22.63,1.97,1.7,4.7,2.7,7.77,3.22h0c5.09.88,11.11.46,16.16-.26,6.01-.85,10.62-2.13,10.62-2.13,3.79,7.79,9.05,49.43,7.32,51.66Z"/>
            <path class="cls-1" d="M295.81,30.82s-4.22-5.64-9.3-4.35c-3.77.96-1.74,15.97,5.1,15.93,5.78-.04,6.84-6.89,6.84-6.89l-2.64-4.69Z"/>
            <path class="cls-3" d="M341.3,59.25c-1.25,1.61-5.37,2.11-10.59,1.87h0c-.93-8.6-2.66-22.7-2.66-22.7,2.58-.97,6.72-1.61,6.72-1.61-1.89-9.25-11.43-27.1-11.43-27.1,6.01-.85,10.62-2.13,10.62-2.13,3.79,7.79,9.05,49.43,7.32,51.66Z"/>
            <path class="cls-3" d="M314.63,32.24c.49-1.34,6.89-2.06,7.72-1.62.83.43-2.32,3-3.62,3.13-1.3.13-4.1-1.51-4.1-1.51Z"/>
            <g>
              <path class="cls-8" d="M319.9,26.25c.14,1.33.95,2.33,1.8,2.23.86-.09,1.43-1.25,1.29-2.58-.14-1.33-.95-2.33-1.8-2.23-.86.09-1.43,1.25-1.29,2.58Z"/>
              <path class="cls-11" d="M322.05,25.49c.03.29.36.48.75.44.38-.04.67-.31.64-.59-.03-.29-.36-.48-.75-.44-.38.04-.67.31-.64.59Z"/>
            </g>
            <g>
              <path class="cls-8" d="M334.45,25.58c.14,1.33.95,2.33,1.8,2.23.86-.09,1.43-1.25,1.29-2.58-.14-1.33-.95-2.33-1.8-2.23-.86.09-1.43,1.25-1.29,2.58Z"/>
              <path class="cls-11" d="M336.61,24.82c.03.29.36.48.75.44.38-.04.67-.31.64-.59-.03-.29-.36-.48-.75-.44-.38.04-.67.31-.64.59Z"/>
            </g>
            <path class="cls-8" d="M326.19,21.37s0-2.26-.93-3.21c-.52-.52-6.78-1.38-7.99-.95-2.27.8-1.91,4.32-1.91,4.32,0,0,8.94-.28,10.84-.16Z"/>
            <path class="cls-8" d="M341.64,20.2s0-2.26-.93-3.21c-.52-.52-6.78-1.38-7.99-.95-2.27.8-1.91,4.32-1.91,4.32,0,0,8.94-.28,10.84-.16Z"/>
            <g>
              <path class="cls-8" d="M325.53,48.24s-5.66-.78-8.4-2.67c0,0,.91,4.56,8.4,2.67Z"/>
              <path class="cls-8" d="M317.71,44.75s.53,2.05-1.72,1.56c0,0,.83-.6,1.72-1.56Z"/>
            </g>
            <path class="cls-10" d="M298.89,39.93c.03-.63,8.32-1.81,9.9-.86,1.58.95,5.32,14.05,4.11,15.68-1.2,1.63-14.44-5.35-14.01-14.82Z"/>
            <path class="cls-8" d="M335.74-2.26s4.45-3.8,4.37-7.59c0,0,6.88,9.44-3.39,15.74,0,0-2.99-3.79-.98-8.15Z"/>
            <path class="cls-3" d="M293.93,35.36c.49-1.16-2.51-4.54-3.91-4.72-1.4-.18,2.11,3.23,3.13,3.97,0,0-3.29-.94-3.59.9-.25,1.53,1.32,2.1,1.79,2.06.47-.04-1.2-2.02-.26-2.2.93-.18,2.66.46,2.85,0Z"/>
            <path class="cls-12" d="M306.69,5.89s24.19,7.11,31.32-7.02c0,0-9.36,7.02-20.24,4.37,0,0,4.26-2.11,9.42-4.37,0,0-17.11-1.29-20.5,7.02Z"/>
            <path class="cls-12" d="M296.68,11.3s-2.73,3.88-3.39,6.19l-2.99-4.09s-1.37,2.42-1.43,4.79c0,0-2.16-4.34-5.33-5.38,0,0,3.48,11.81,4.09,15.77,0,0,3.65-2.12,3.38-8.88,0,0,3.19,5.71,6.52,6.59,0,0-2.48-6-.86-14.98Z"/>
            <path class="cls-12" d="M302.59.5s6.51-1.94,9.05-7.34c0,0,2.22,7.7-9.05,7.34Z"/>
            <path class="cls-3" d="M334.07,172.16c-1.63-4.16-2.84-8.92-3.31-14.34,3.27.47,8.61.12,11.83-1.5,1.31-.66,7-6.58,8.74-12.92.65-2.36,2.63,13.42.25,17.85-2.25,4.18-11.49,9.07-17.5,10.91Z"/>
            <path class="cls-10" d="M347.79,101.21c4.38-5.77,8.9-10.17,12.7-13.33,4.48,3.59,10.26,8.57,11.14,11.01,1.1,3.02-13.85,3.8-23.84,2.32Z"/>
            <path class="cls-10" d="M366.44,111.84c0,10.52-22.19,35.54-27.29,37.76-2.14.94-5.45.53-8.56-.25.05-.95.11-1.91.2-2.89,1.73-19.26,8.56-33.65,16.04-43.92,9.95,1.65,19.62,4.49,19.62,9.31Z"/>
            <path class="cls-3" d="M343.27,179.74c-.24.66-2.12,1.18-4.51,1.51-1.24-1.89-2.43-3.97-3.49-6.26,1.69-.56,6.77-2.3,8.5-3.52,0,0,.15,6.53-.5,8.27Z"/>
          </g>
        </g>
      </g>
      <g>
        <g>
          <path class="cls-11" d="M511.09,56.41l-2.68,16.01h-23.42l-4.68,27.94h-21.24l12.21-73.35h51.54l-2.79,16.5h-30.21l-2.16,12.9h23.42Z"/>
          <path class="cls-11" d="M550.69,27.01l-12.21,73.35h-20.8l12.21-73.35h20.8Z"/>
          <path class="cls-11" d="M592.38,43.67l-9.48,56.69h-21.24l9.48-56.69h-15.64l2.84-16.87h52.95l-2.79,16.87h-16.12Z"/>
          <path class="cls-11" d="M680.43,27.01l-12.21,73.35h-16.25l-14.03-28.16c-3.82-7.7-6.23-13.79-7.24-18.27.07,1.08.11,1.92.11,2.53,0,2.01-.27,4.66-.8,7.95l-6,35.95h-17.82l12.21-73.35h19.7l8.03,16.98c5.57,11.75,9.19,20.44,10.88,26.06-.11-1.47-.16-2.56-.16-3.28,0-2.08.48-6.06,1.45-11.93l4.66-27.83h17.49Z"/>
          <path class="cls-11" d="M737.64,83.49l-2.84,16.87h-53.89l12.21-73.35h52.55l-2.68,16.07h-31.37l-1.9,11.5h26.36l-2.68,15.91h-26.31l-2.15,13h32.69Z"/>
          <path class="cls-11" d="M810.34,44.05l-18.8,4.78c-.54-2.19-1.88-3.9-4.02-5.16-2.14-1.25-4.5-1.88-7.07-1.88-4.82,0-7.23,1.61-7.23,4.84,0,1.04.34,1.93,1.02,2.69.68.75,2.59,1.69,5.73,2.8l11.62,4.16c3.03,1.08,5.86,2.67,8.47,4.76,2.61,2.09,4.49,4.39,5.63,6.87s1.72,5.15,1.72,7.97c0,7.41-2.9,13.53-8.71,18.36-5.8,4.83-13.55,7.25-23.22,7.25-8.29,0-15.51-1.68-21.67-5.05-6.16-3.37-10.46-8.51-12.88-15.42l21.11-4.14c1.82,5.19,6.32,7.79,13.5,7.79,3,0,5.17-.55,6.51-1.64,1.34-1.09,2.01-2.34,2.01-3.73,0-.9-.26-1.68-.78-2.36-.52-.68-1.07-1.17-1.66-1.48-.59-.3-3.36-1.37-8.33-3.21-6.71-2.48-11.42-4.45-14.11-5.9-2.7-1.45-4.95-3.61-6.75-6.47-1.8-2.86-2.71-6.23-2.71-10.1,0-6.69,2.46-12.36,7.37-17,4.91-4.64,12.42-6.95,22.53-6.95,7.71,0,14.32,1.63,19.82,4.89,5.5,3.26,9.14,7.7,10.93,13.33Z"/>
          <path class="cls-11" d="M878.05,44.05l-18.8,4.78c-.54-2.19-1.88-3.9-4.02-5.16-2.14-1.25-4.5-1.88-7.07-1.88-4.82,0-7.23,1.61-7.23,4.84,0,1.04.34,1.93,1.02,2.69.68.75,2.59,1.69,5.73,2.8l11.62,4.16c3.03,1.08,5.86,2.67,8.47,4.76,2.61,2.09,4.49,4.39,5.63,6.87s1.72,5.15,1.72,7.97c0,7.41-2.9,13.53-8.71,18.36-5.8,4.83-13.55,7.25-23.22,7.25-8.29,0-15.51-1.68-21.67-5.05-6.16-3.37-10.46-8.51-12.88-15.42l21.11-4.14c1.82,5.19,6.32,7.79,13.5,7.79,3,0,5.17-.55,6.51-1.64,1.34-1.09,2.01-2.34,2.01-3.73,0-.9-.26-1.68-.78-2.36-.52-.68-1.07-1.17-1.66-1.48-.59-.3-3.36-1.37-8.33-3.21-6.71-2.48-11.42-4.45-14.11-5.9-2.7-1.45-4.95-3.61-6.75-6.47-1.8-2.86-2.71-6.23-2.71-10.1,0-6.69,2.46-12.36,7.37-17,4.91-4.64,12.42-6.95,22.53-6.95,7.71,0,14.32,1.63,19.82,4.89,5.5,3.26,9.14,7.7,10.93,13.33Z"/>
        </g>
        <g>
          <path class="cls-11" d="M605.65,120.89c3.62,1.88,6.38,4.54,8.29,7.98,1.9,3.44,2.83,7.45,2.78,12.04h-19.1c-.49-1.91-1.46-3.4-2.9-4.46-1.44-1.06-3.2-1.6-5.26-1.6-3.05,0-5.65,1.15-7.8,3.44-2.15,2.29-3.58,5.38-4.29,9.25-.22,1.09-.33,2.27-.33,3.52,0,2.84.69,5.08,2.08,6.71,1.39,1.64,3.36,2.46,5.92,2.46,2.07,0,4-.53,5.8-1.6s3.29-2.55,4.49-4.46h19.1c-2.45,6.93-6.52,12.47-12.2,16.62-5.69,4.15-12.29,6.22-19.79,6.22-5.06,0-9.39-.95-12.98-2.87-3.59-1.91-6.33-4.6-8.2-8.07-1.88-3.47-2.82-7.49-2.82-12.08,0-2.18.19-4.34.57-6.47.98-5.73,3.02-10.84,6.12-15.31,3.1-4.48,7.02-7.96,11.75-10.44,4.73-2.48,10.01-3.73,15.84-3.73,5.01,0,9.32.94,12.94,2.83Z"/>
          <path class="cls-11" d="M642.75,133.05l-1.22,7.21h17.96l-2.45,13.67h-17.96l-1.39,8.19h20.41l-2.53,14.49h-38.53l10.12-57.97h38.53l-2.53,14.41h-20.41Z"/>
          <path class="cls-11" d="M717.85,176.61h-18.12l-14.12-29.15-5.06,29.15h-18.12l10.12-57.97h18.12l14.04,29.64,5.14-29.64h18.12l-10.12,57.97Z"/>
          <path class="cls-11" d="M781.52,118.64l-2.53,14.41h-15.35l-7.59,43.56h-18.12l7.59-43.56h-15.18l2.53-14.41h48.65Z"/>
          <path class="cls-11" d="M802.01,133.05l-1.22,7.21h17.96l-2.45,13.67h-17.96l-1.39,8.19h20.41l-2.53,14.49h-38.53l10.12-57.97h38.53l-2.53,14.41h-20.41Z"/>
          <path class="cls-11" d="M872.9,122.86c3.24,2.81,4.86,6.54,4.86,11.18,0,1.31-.11,2.51-.33,3.6-.71,3.93-2.41,7.38-5.1,10.36-2.69,2.98-6.16,5.12-10.41,6.43l8.73,22.19h-19.92l-7.35-20.8-3.59,20.8h-18.12l10.12-57.97h26.94c6.2,0,10.92,1.41,14.16,4.22ZM845.52,143.69h7.18c3.54,0,5.58-1.64,6.12-4.91.05-.27.08-.63.08-1.06,0-1.2-.37-2.14-1.1-2.83-.73-.68-1.84-1.02-3.31-1.02h-7.18l-1.79,9.83Z"/>
        </g>
      </g>
    </g>
  </g>
</svg>